<svg width="131" height="30" viewBox="0 0 131 30" fill="none" xmlns="http://www.w3.org/2000/svg">
<path d="M98.776 16.3703L100.634 10.698L102.511 16.3703H98.776ZM124.867 19.9304C123.517 19.9304 122.754 18.9914 122.754 17.0752V16.5862C122.754 14.8452 123.556 13.7891 124.945 13.7891C126.079 13.7891 126.998 14.5911 126.998 16.8203C126.998 19.0495 126.157 19.9304 124.866 19.9304H124.867ZM119.84 25.7587H122.734V20.9085C123.438 21.8475 124.475 22.2775 125.59 22.2775C128.289 22.2775 129.971 20.1654 129.971 16.7423C129.971 13.3191 128.524 11.442 125.786 11.442C124.436 11.442 123.419 11.931 122.656 12.948V11.755H119.84V25.7587ZM113.465 19.9304C112.116 19.9304 111.353 18.9914 111.353 17.0752V16.5862C111.353 14.8452 112.155 13.7891 113.543 13.7891C114.677 13.7891 115.596 14.5911 115.596 16.8203C115.596 19.0495 114.755 19.9304 113.464 19.9304H113.465ZM108.438 25.7587H111.332V20.9085C112.036 21.8475 113.073 22.2775 114.187 22.2775C116.886 22.2775 118.568 20.1654 118.568 16.7423C118.568 13.3191 117.121 11.442 114.383 11.442C113.034 11.442 112.017 11.931 111.254 12.948V11.755H108.438V25.7587ZM93.8867 21.9637H96.9769L98.0139 18.8735H103.275L104.312 21.9637H107.5L102.513 7.99891H98.8948L93.8876 21.9637H93.8867ZM88.9775 22.2767C91.9307 22.2767 93.4367 21.0637 93.4367 19.0694C93.4367 17.0752 92.4977 16.2532 89.7986 15.8032L88.5275 15.5882C87.4324 15.4122 87.0995 15.0602 87.0995 14.4931C87.0995 13.9261 87.5295 13.4761 88.7616 13.4761C89.9156 13.4761 90.3847 13.9061 90.5807 15.0012H93.2798C93.1237 12.6741 91.6367 11.442 88.7616 11.442C86.0824 11.442 84.3613 12.596 84.3613 14.5712C84.3613 16.5463 85.5154 17.3093 88.0966 17.7394L89.2697 17.9353C90.3457 18.1113 90.5998 18.5024 90.5998 19.0894C90.5998 19.7735 90.1497 20.2044 88.9177 20.2044C87.6856 20.2044 86.9815 19.7353 86.8645 18.6593H84.1064C84.2044 21.2015 86.0625 22.2775 88.9766 22.2775L88.9775 22.2767ZM80.959 22.1986C81.859 22.1986 82.7781 21.9446 83.3252 21.5726V19.3824C82.7772 19.6954 82.2492 19.8515 81.7602 19.8515C80.9191 19.8515 80.4691 19.4995 80.4691 18.4235V14.0232H83.3243V11.7541H80.4691V8.93793H77.887V10.503C77.887 11.383 77.672 11.755 76.7919 11.755H76.0289V14.0241H77.574V18.5223C77.574 20.8885 78.474 22.1995 80.9573 22.1995L80.959 22.1986ZM70.1243 20.2426C69.1853 20.2426 68.6573 19.8316 68.6573 19.1085C68.6573 18.2874 69.2633 17.8954 70.6714 17.6613C71.4535 17.5243 72.0604 17.3683 72.5295 17.0353V18.0324C72.5295 19.3816 71.5714 20.2426 70.1234 20.2426H70.1243ZM69.3804 22.2767C70.8865 22.2767 71.9425 21.6506 72.7636 20.7316C72.8616 21.2206 73.0376 21.6316 73.2717 21.9637H76.0099C75.5208 21.2006 75.3058 20.0665 75.3058 18.5605V15.2943C75.3058 12.8691 74.0148 11.4411 70.9636 11.4411C68.2645 11.4411 66.6804 12.5561 66.3674 15.0004H69.0076C69.1636 14.0613 69.7315 13.5142 70.8656 13.5142C71.9217 13.5142 72.5278 13.9443 72.5278 14.6874C72.5278 15.4304 72.0778 15.6845 70.0827 15.9784C67.9116 16.2914 65.9165 17.0735 65.9165 19.2645C65.9165 21.2206 67.3055 22.2767 69.3786 22.2767H69.3804ZM55.2405 21.9637H58.1347V15.9793C58.1347 15.2752 58.3107 14.9423 58.7408 14.5122C59.1708 14.0822 59.7379 13.8472 60.3448 13.8472C61.3029 13.8472 61.8119 14.3752 61.8119 15.6663V21.9637H64.7061V15.1183C64.7061 12.7521 63.533 11.4411 61.3229 11.4411C60.1888 11.4411 59.1327 11.7931 58.1347 12.9663V7.99891H55.2405V21.9637ZM39.5347 21.9637H42.7229L45.031 11.8911L47.3781 21.9637H50.6052L54.3015 7.99891H51.0943L48.9041 18.3056L46.557 8.07695H43.6628L41.2766 18.3446L39.0865 7.99805H35.7812L39.5365 21.9628L39.5347 21.9637Z" fill="#25D366"/>
<path d="M16.0273 0C7.74266 0 1.02734 6.71532 1.02734 15C1.02734 17.7251 1.75393 20.2812 3.02503 22.4835L1.02734 30L8.81954 28.1575C10.9586 29.3315 13.4149 30 16.0273 30C24.312 30 31.0273 23.2847 31.0273 15C31.0273 6.71532 24.312 0 16.0273 0ZM16.0273 27.313C13.5207 27.313 11.1883 26.5639 9.24353 25.2772L4.63948 26.4494L5.93052 22.0491C4.5337 20.0523 3.71434 17.622 3.71434 15C3.71434 8.19971 9.22705 2.68699 16.0273 2.68699C22.8276 2.68699 28.3403 8.19971 28.3403 15C28.3403 21.8003 22.8276 27.313 16.0273 27.313Z" fill="#25D366"/>
<path d="M19.5432 16.9803L23.1727 18.691C23.3392 18.7699 23.4458 18.9381 23.4311 19.1219C23.3921 19.5997 23.2004 20.5569 22.3421 21.4144C19.9204 23.8361 15.5713 21.0962 15.3944 20.9904C14.3244 20.4156 13.3083 19.6473 12.345 18.6832C11.3817 17.7199 10.6126 16.7028 10.0377 15.6338C9.93195 15.4569 7.19207 11.1086 9.61374 8.68608C10.4721 7.8277 11.4285 7.63694 11.9062 7.59706C12.09 7.58232 12.2591 7.68897 12.3372 7.85544L14.0478 11.4849C14.1285 11.6566 14.0929 11.8604 13.9594 11.9947L12.684 13.2702C12.4083 13.5459 12.3267 13.9751 12.5175 14.3158C12.9831 15.1508 13.6091 15.9546 14.334 16.6942C15.0736 17.419 15.8773 18.045 16.7123 18.5106C17.0531 18.7005 17.4822 18.6199 17.758 18.3442L19.0334 17.0687C19.1678 16.9343 19.3715 16.8988 19.5432 16.9803Z" fill="#25D366"/>
</svg>
